<svg xmlns="http://www.w3.org/2000/svg" width="669" height="373" viewBox="0 0 669 373" version="1.1"><path d="M 283.357 101.945 C 280.148 103.310, 278 106.994, 278 111.134 C 278 115.911, 282.452 120, 287.654 120 C 295.426 120, 299.838 110.378, 294.750 104.522 C 292.280 101.679, 286.864 100.454, 283.357 101.945 M 307.888 102.500 C 302.728 105.304, 301.757 112.757, 306 117 C 313.385 124.385, 325.927 116.481, 321.972 106.933 C 319.792 101.669, 313.222 99.601, 307.888 102.500 M 293.962 130.865 C 283.591 133.067, 273.014 142.290, 268.860 152.753 C 267.064 157.278, 266.570 160.521, 266.539 168 C 266.504 176.417, 266.818 178.147, 269.290 183.182 C 272.573 189.868, 277.300 194.309, 284.954 197.899 L 290.500 200.500 322.178 200.813 C 357.436 201.161, 357.301 201.183, 363.624 194.290 L 366.749 190.883 370.124 193.971 C 375.668 199.041, 381.216 201.172, 390.353 201.742 C 401.713 202.451, 408.599 200.391, 415.056 194.351 L 419.902 189.818 423.192 193.566 C 429.350 200.579, 431.221 200.953, 460.250 200.978 L 486 201 486 168.462 L 486 135.925 476.750 136.212 L 467.500 136.500 467.231 159.250 L 466.962 182 450.731 181.996 C 436.424 181.993, 434.122 181.762, 431.314 180.050 C 426.835 177.319, 426.087 175.407, 424.989 163.889 C 423.501 148.266, 418.987 140.032, 408.900 134.542 C 402.693 131.164, 391.983 130.025, 384.290 131.926 C 369.528 135.574, 359 150.483, 359 167.742 C 359 173.967, 357.003 179.393, 354.150 180.920 C 353.040 181.514, 347.651 182, 342.175 182 L 332.218 182 331.768 167.250 C 331.285 151.401, 330.650 148.917, 325.144 141.343 C 319.487 133.560, 304.688 128.588, 293.962 130.865 M 514 138.900 L 514 147.799 526.796 148.150 C 540.962 148.538, 543.455 149.419, 547.044 155.304 C 548.683 157.992, 548.993 160.368, 548.996 170.250 L 549 182 527 182 L 505 182 505 191.500 L 505 201 536.500 201 L 568 201 568 179.210 C 568 155.426, 566.998 148.666, 562.448 141.759 C 556.756 133.118, 547.528 130.040, 527.250 130.016 L 514 130 514 138.900 M 294.481 149.347 C 281.041 155.410, 280.933 175.880, 294.315 180.936 C 295.863 181.521, 300.990 182, 305.707 182 L 314.283 182 313.767 171.250 C 313.216 159.766, 311.776 154.898, 307.868 151.300 C 304.810 148.486, 298.448 147.558, 294.481 149.347 M 388.001 149.123 C 381.466 151.729, 377.679 158.068, 377.619 166.500 C 377.544 177.142, 382.823 182.993, 392.500 182.993 C 401.311 182.993, 406.596 178.205, 407.655 169.264 C 408.671 160.686, 404.309 152.281, 397.329 149.364 C 393.554 147.787, 391.486 147.734, 388.001 149.123 M 452.388 212.942 C 448.472 214.595, 445.761 219.130, 446.376 223 C 448.083 233.734, 463.931 233.642, 465.642 222.887 C 466.123 219.864, 465.751 218.762, 463.359 216.135 C 460.309 212.785, 455.841 211.485, 452.388 212.942 M 477.329 213.458 C 473.501 215.123, 472 217.665, 472 222.482 C 472 230.530, 482.107 234.047, 488.077 228.077 C 493.021 223.133, 491.753 216.048, 485.452 213.415 C 481.385 211.716, 481.332 211.716, 477.329 213.458 M 339.561 214.959 C 335.195 215.880, 331.461 217.116, 331.265 217.706 C 331.068 218.296, 332.598 219.179, 334.665 219.668 C 339.196 220.740, 339.760 222.240, 339.900 233.589 L 340 241.677 332.750 241.655 C 323.554 241.626, 316.657 244.479, 310.947 250.674 C 305.597 256.477, 304 260.532, 304 268.311 C 304 279.248, 310.153 287.487, 320.333 290.181 C 325.046 291.427, 325.337 291.370, 332.066 287.880 C 335.862 285.911, 339.199 284.533, 339.484 284.817 C 339.768 285.101, 340 286.509, 340 287.945 L 340 290.558 348.500 288.551 C 353.659 287.332, 357 286.044, 357 285.272 C 357 284.572, 356.070 284, 354.934 284 C 353.798 284, 351.998 283.534, 350.934 282.965 C 349.079 281.972, 349 280.516, 349 247.465 C 349 228.509, 348.663 213.064, 348.250 213.143 C 347.837 213.221, 343.928 214.039, 339.561 214.959 M 274.721 242.939 C 266.541 246.174, 260 250.897, 260 253.569 C 260 255.923, 262.513 258, 265.361 258 C 266.197 258, 267.954 255.597, 269.354 252.537 C 271.260 248.375, 272.511 246.910, 274.608 246.383 C 280.123 244.999, 284.957 250.027, 284.985 257.177 L 285 260.855 276.750 263.926 C 264.836 268.362, 261.692 270.146, 260.166 273.335 C 257.104 279.734, 262.654 289.094, 270.368 290.541 C 273.504 291.129, 274.890 290.746, 279.114 288.120 C 285.051 284.429, 285.154 284.415, 286.791 287.037 C 289.229 290.941, 292.652 291.311, 298.086 288.259 C 303.394 285.278, 304.766 282.429, 300.501 283.245 C 295.151 284.267, 294.545 282.597, 294 265.332 C 293.588 252.302, 293.181 249.031, 291.701 246.851 C 288.373 241.949, 281.328 240.326, 274.721 242.939 M 377.123 241.971 C 375.266 242.427, 371.904 244.094, 369.651 245.678 C 357.924 253.920, 354.586 270.269, 362.307 281.653 C 370.086 293.122, 385.687 293.553, 395.937 282.582 C 397.694 280.701, 398.070 279.670, 397.285 278.885 C 396.499 278.099, 395.375 278.403, 393.251 279.972 C 390.021 282.361, 383.556 283.607, 379.579 282.609 C 373.601 281.109, 369.305 275.328, 367.521 266.382 L 366.899 263.263 379.199 262.579 C 397.708 261.549, 398 261.467, 398 257.290 C 398 247.018, 387.617 239.399, 377.123 241.971 M 419.367 242.395 C 407.170 246.305, 399.286 259.839, 401.829 272.501 C 403.878 282.703, 410.563 289.293, 420.204 290.614 C 425.737 291.373, 433.291 288.358, 437.981 283.520 C 442.409 278.951, 441.092 277.276, 435.600 280.494 C 430.024 283.762, 423.586 283.858, 418.898 280.742 C 414.953 278.121, 411 270.962, 411 266.441 L 411 263.306 425.556 262.297 C 433.562 261.742, 440.593 260.807, 441.181 260.219 C 442.676 258.724, 441.409 252.903, 438.722 248.916 C 434.497 242.646, 426.738 240.032, 419.367 242.395 M 452.293 243.539 C 443.635 245.991, 442.848 246.612, 446.591 248.035 C 448.169 248.634, 449.799 249.659, 450.214 250.313 C 450.630 250.966, 450.976 258.757, 450.985 267.628 C 451.001 284.877, 450.902 285.233, 445.744 286.528 C 444.235 286.907, 443 287.857, 443 288.640 C 443 289.806, 445.111 290.013, 454.668 289.782 C 466.519 289.496, 469.557 288.404, 464.165 286.368 C 461.738 285.452, 461.214 284.577, 460.656 280.506 C 460.295 277.874, 460 270.874, 460 264.949 C 460 254.185, 460.002 254.176, 463.029 251.629 C 466.381 248.809, 471.651 247.445, 475.481 248.406 C 480.249 249.603, 481.418 253.111, 481.817 267.420 C 482.239 282.585, 481.502 285.511, 477.007 286.498 C 475.295 286.875, 474.067 287.704, 474.279 288.341 C 474.533 289.109, 478.599 289.595, 486.332 289.782 C 495.929 290.013, 498 289.809, 498 288.630 C 498 287.841, 496.666 286.731, 495.035 286.162 C 491.162 284.812, 490.867 283.298, 491.212 266.530 L 491.500 252.560 495.500 250.297 C 500.750 247.326, 505.148 247.364, 508.694 250.412 L 511.500 252.823 511.500 268.662 L 511.500 284.500 508.250 285.930 C 506.462 286.717, 505 287.969, 505 288.712 C 505 289.786, 507.395 290.006, 516.668 289.782 C 528.648 289.492, 532.136 288.186, 525.782 286.369 L 522.500 285.430 521.916 268.965 C 521.307 251.804, 520.627 248.594, 516.854 245.079 C 511.312 239.916, 503.968 240.486, 494.803 246.792 L 490.204 249.956 487.575 246.509 C 482.673 240.083, 475.507 239.899, 466.065 245.958 C 463.458 247.631, 461.053 249, 460.720 249 C 460.387 249, 459.977 247.312, 459.807 245.249 L 459.500 241.498 452.293 243.539 M 546.276 242.940 C 540.454 245.049, 533.242 249.606, 531.635 252.191 C 530.835 253.479, 531.029 254.375, 532.447 255.941 C 535.542 259.362, 537.837 258.553, 540.081 253.250 C 543.451 245.284, 547.943 243.789, 553.077 248.923 C 555.425 251.271, 556 252.715, 556 256.263 C 556 261.270, 555.809 261.414, 543.574 265.620 C 534.524 268.731, 532.234 270.329, 531.201 274.255 C 529.277 281.573, 534.059 289.170, 541.463 290.559 C 544.417 291.113, 545.991 290.643, 550.825 287.764 L 556.637 284.302 558.191 287.011 C 560.554 291.127, 564.062 291.517, 569.449 288.264 C 574.362 285.296, 575.690 282.359, 571.662 283.370 C 566.836 284.581, 566.192 282.730, 565.788 266.500 C 565.496 254.730, 565.043 250.802, 563.687 248.259 C 560.304 241.917, 554.228 240.060, 546.276 242.940 M 322.984 246.854 C 316.766 250.163, 313.194 259.443, 314.580 268.686 C 315.916 277.593, 323.363 284.520, 330.736 283.713 C 333.065 283.458, 336.103 282.508, 337.486 281.601 C 339.977 279.969, 340 279.826, 340 265.651 C 340 252.110, 339.880 251.236, 337.750 249.241 C 335.314 246.959, 330.888 245, 328.169 245 C 327.234 245, 324.901 245.834, 322.984 246.854 M 374.401 246.855 C 371.630 248.582, 368 254.992, 368 258.156 C 368 259.780, 386.960 258.683, 388 257 C 389.041 255.315, 387.458 250.013, 385.255 247.811 C 382.476 245.031, 377.963 244.634, 374.401 246.855 M 416.581 248.145 C 412.338 252.079, 410.217 257.762, 412.644 258.694 C 414.818 259.528, 430.177 258.223, 431.291 257.109 C 432.511 255.889, 430.468 249.734, 428.147 247.633 C 427.169 246.748, 424.981 245.746, 423.284 245.407 C 420.715 244.893, 419.596 245.350, 416.581 248.145 M 86.491 251.802 C 66.119 261.378, 72.600 291.333, 95.044 291.333 C 115.224 291.333, 123.054 265.403, 106.405 253.714 C 100.953 249.886, 92.329 249.058, 86.491 251.802 M 213.900 251.991 C 207.120 255.575, 202.011 263.528, 202.011 270.500 C 202.011 277.887, 208.974 287.846, 215.686 290.061 C 221.253 291.899, 230.153 290.826, 234.787 287.760 C 239.660 284.535, 244.010 276.392, 243.978 270.554 C 243.937 262.923, 237.488 253.657, 230.324 250.933 C 226.244 249.382, 217.809 249.925, 213.900 251.991 M 277.505 267.278 C 270.432 271.079, 268.465 274.168, 270.112 278.892 C 270.716 280.625, 272.033 282.483, 273.039 283.021 C 275.756 284.475, 280.258 284.208, 282.777 282.443 C 284.776 281.044, 285 280.035, 285 272.443 C 285 267.799, 284.663 264.013, 284.250 264.028 C 283.837 264.044, 280.802 265.506, 277.505 267.278 M 550 266.759 C 542.528 270.028, 541 271.593, 541 275.981 C 541 282.775, 548.693 286.504, 553.935 282.250 C 555.874 280.677, 556.062 279.684, 555.796 272.426 L 555.500 264.353 550 266.759" stroke="none" fill="#060606" fill-rule="evenodd"/><path d="M 282.999 11.250 C 272.945 45.941, 255.180 103.513, 238.486 155.500 C 233.894 169.800, 229.060 185.100, 227.742 189.500 C 226.425 193.900, 224.949 197.500, 224.462 197.500 C 223.976 197.500, 222.591 194.125, 221.386 190 C 220.181 185.875, 216.665 173.950, 213.573 163.500 C 210.481 153.050, 205.028 134.453, 201.457 122.174 C 197.885 109.894, 194.303 98.268, 193.497 96.338 L 192.030 92.828 160.478 93.164 C 125.161 93.540, 127.044 93.099, 127.013 101 C 126.965 113.093, 121.141 142.470, 113.335 170 C 109.865 182.238, 100.610 207.679, 99.024 209.338 C 98.064 210.343, 94.970 201.151, 87.466 175 C 76.432 136.545, 63.794 94.485, 63.031 93.677 C 62.114 92.705, 42.084 92.679, 19.250 93.618 C 1.148 94.363, 0.450 94.720, 5.895 100.452 C 7.488 102.129, 11.624 108.450, 15.088 114.500 C 34.770 148.880, 52.269 202.553, 62.194 258.987 C 63.725 267.689, 65.813 269.291, 68.754 264.017 C 69.714 262.295, 73.133 256.788, 76.351 251.779 C 79.569 246.770, 83.464 240.383, 85.008 237.586 C 86.551 234.789, 89.239 229.912, 90.982 226.750 C 92.724 223.588, 94.289 221, 94.458 221 C 94.628 221, 94.091 222.912, 93.265 225.250 C 92.439 227.588, 91.534 232.501, 91.253 236.169 L 90.743 242.839 98.044 245.013 C 104.128 246.825, 106.309 248.107, 111.129 252.704 C 115.285 256.669, 117.370 259.597, 118.537 263.111 C 121.365 271.627, 122.863 270.090, 129.363 252 C 150.425 193.376, 163.237 158.366, 163.852 157.749 C 164.817 156.783, 170.960 174.201, 176.638 194 C 181.305 210.272, 190.427 249.797, 191.579 258.732 C 192.236 263.834, 194.652 268.501, 195.599 266.500 C 201.174 254.727, 204.854 249.316, 209 246.797 C 213.345 244.157, 213.742 244.099, 220.500 245.117 C 224.350 245.697, 229.123 246.582, 231.106 247.083 C 236.573 248.464, 243.421 255.063, 246.103 261.536 C 247.657 265.284, 248.898 266.978, 249.949 266.785 C 251.012 266.590, 253.793 259.586, 258.798 244.500 C 266.779 220.440, 273 199.899, 273 197.608 C 273 196.804, 271.208 193.526, 269.017 190.323 C 253.797 168.069, 264.627 136.346, 290.325 127.910 C 295.665 126.157, 297.158 125.217, 297.638 123.307 C 298.501 119.868, 297.731 119.636, 293.581 122.085 C 286.950 125.997, 278.230 123.189, 275.311 116.201 C 271.853 107.927, 276.255 98.981, 284.550 97.425 C 288.802 96.627, 295.190 98.447, 297.641 101.155 C 301.507 105.428, 304.370 101.837, 308.928 87 C 317.895 57.812, 322.131 47.601, 330.223 35.676 C 342.188 18.043, 359.838 5.647, 379 1.419 C 383.595 0.405, 376.419 0.188, 335.380 0.102 L 286.259 0 282.999 11.250 M 605.503 123.616 C 593.215 126.586, 581.048 136.196, 574.526 148.081 L 571.553 153.500 571.164 178.311 C 570.823 200.063, 570.988 203.681, 572.510 207.666 C 576.074 216.997, 586.450 225.148, 600.422 229.590 C 607.071 231.704, 611.204 232.260, 623.785 232.731 C 632.192 233.046, 639.264 233.619, 639.502 234.004 C 639.740 234.389, 639.182 237.349, 638.262 240.583 C 636.172 247.932, 630.546 253.931, 623.433 256.398 C 616.619 258.761, 603.563 259.442, 590.552 258.113 C 583.397 257.382, 579.265 257.335, 578.624 257.976 C 578.085 258.515, 577.213 264.628, 576.688 271.559 C 575.837 282.791, 575.914 284.343, 577.399 285.828 C 579.933 288.362, 615.280 288.256, 626.254 285.681 C 636.799 283.207, 646.983 277.906, 653.598 271.447 C 660.145 265.055, 666.189 252.989, 667.889 242.918 C 669.685 232.276, 669.340 168.072, 667.443 160 C 661.727 135.675, 644.233 121.827, 619.540 122.083 C 615.118 122.129, 608.801 122.819, 605.503 123.616 M 513.355 139.500 C 513.352 144.450, 513.521 146.601, 513.731 144.280 C 513.940 141.959, 513.943 137.909, 513.736 135.280 C 513.530 132.651, 513.358 134.550, 513.355 139.500 M 610.748 151.365 C 600.512 155.186, 594.643 164.323, 594.701 176.351 C 594.745 185.442, 596.946 190.902, 602.556 195.840 C 608.005 200.637, 611.737 201.724, 625.728 202.588 C 634.156 203.109, 637.335 202.967, 638.478 202.018 C 639.706 200.999, 639.998 198.120, 639.988 187.128 C 639.972 168.467, 636.863 157.887, 629.948 152.963 C 626.020 150.166, 616.160 149.345, 610.748 151.365 M 332.382 170.500 C 332.384 177.100, 332.546 179.670, 332.741 176.211 C 332.937 172.752, 332.936 167.352, 332.738 164.211 C 332.540 161.070, 332.380 163.900, 332.382 170.500 M 425.286 165.500 C 425.294 168.250, 425.488 169.256, 425.718 167.736 C 425.947 166.216, 425.941 163.966, 425.704 162.736 C 425.467 161.506, 425.279 162.750, 425.286 165.500 M 284.252 165.500 C 284.263 167.700, 284.468 168.482, 284.707 167.238 C 284.946 165.994, 284.937 164.194, 284.687 163.238 C 284.437 162.282, 284.241 163.300, 284.252 165.500 M 407.286 166.500 C 407.294 169.250, 407.488 170.256, 407.718 168.736 C 407.947 167.216, 407.941 164.966, 407.704 163.736 C 407.467 162.506, 407.279 163.750, 407.286 166.500 M 568.286 168.500 C 568.294 171.250, 568.488 172.256, 568.718 170.736 C 568.947 169.216, 568.941 166.966, 568.704 165.736 C 568.467 164.506, 568.279 165.750, 568.286 168.500 M 313.355 173.500 C 313.352 178.450, 313.521 180.601, 313.731 178.280 C 313.940 175.959, 313.943 171.909, 313.736 169.280 C 313.530 166.651, 313.358 168.550, 313.355 173.500 M 358.286 169.500 C 358.294 172.250, 358.488 173.256, 358.718 171.736 C 358.947 170.216, 358.941 167.966, 358.704 166.736 C 358.467 165.506, 358.279 166.750, 358.286 169.500 M 504.443 191.748 L 504.500 201.500 532 201.524 L 559.500 201.547 532.286 201.258 L 505.072 200.968 504.729 191.482 L 504.385 181.995 504.443 191.748 M 486.252 190.500 C 486.263 192.700, 486.468 193.482, 486.707 192.238 C 486.946 190.994, 486.937 189.194, 486.687 188.238 C 486.437 187.282, 486.241 188.300, 486.252 190.500 M 312.750 201.747 C 320.038 201.918, 331.962 201.918, 339.250 201.747 C 346.538 201.577, 340.575 201.437, 326 201.437 C 311.425 201.437, 305.462 201.577, 312.750 201.747 M 448.308 201.748 C 455.353 201.920, 466.603 201.919, 473.308 201.747 C 480.014 201.574, 474.250 201.433, 460.500 201.434 C 446.750 201.434, 441.264 201.576, 448.308 201.748 M 349.442 243 C 349.442 259.225, 349.580 265.863, 349.748 257.750 C 349.916 249.637, 349.916 236.362, 349.748 228.250 C 349.580 220.137, 349.442 226.775, 349.442 243 M 491 222.077 C 491 224.144, 490.041 226.113, 488.077 228.077 C 486.469 229.685, 485.529 231, 485.988 231 C 487.829 231, 492 224.703, 492 221.923 C 492 220.315, 491.775 219, 491.500 219 C 491.225 219, 491 220.385, 491 222.077 M 339 232.930 C 339 240.360, 338.858 240.888, 336.750 241.294 C 334.821 241.666, 334.892 241.747, 337.250 241.864 L 340 242 340 233.500 C 340 228.825, 339.775 225, 339.500 225 C 339.225 225, 339 228.569, 339 232.930 M 460.272 245 C 460.272 247.475, 460.467 248.488, 460.706 247.250 C 460.944 246.012, 460.944 243.988, 460.706 242.750 C 460.467 241.512, 460.272 242.525, 460.272 245 M 487.437 246.329 C 488.977 248.348, 490.440 250, 490.687 250 C 491.381 250, 487.052 244.150, 485.772 243.359 C 485.148 242.973, 485.897 244.310, 487.437 246.329 M 543.441 247.574 C 542.374 248.440, 542.136 248.818, 542.913 248.415 C 543.690 248.011, 545.715 247.349, 547.413 246.943 C 550.251 246.264, 550.294 246.196, 547.941 246.102 C 546.534 246.046, 544.509 246.708, 543.441 247.574 M 500.762 248.707 C 502.006 248.946, 503.806 248.937, 504.762 248.687 C 505.718 248.437, 504.700 248.241, 502.500 248.252 C 500.300 248.263, 499.518 248.468, 500.762 248.707 M 221.762 249.707 C 223.006 249.946, 224.806 249.937, 225.762 249.687 C 226.718 249.437, 225.700 249.241, 223.500 249.252 C 221.300 249.263, 220.518 249.468, 221.762 249.707 M 338.802 264.678 C 339.027 275.445, 338.770 279.597, 337.802 280.834 C 336.636 282.326, 336.683 282.356, 338.250 281.128 C 339.771 279.934, 340 277.884, 340 265.437 C 340 257.561, 339.663 250.908, 339.250 250.652 C 338.837 250.396, 338.636 256.708, 338.802 264.678 M 492.095 252.385 C 491.310 253.331, 491.042 258.487, 491.251 268.635 L 491.558 283.500 491.779 268.450 C 491.927 258.347, 492.394 253.006, 493.200 252.200 C 493.860 251.540, 494.140 251, 493.822 251 C 493.505 251, 492.727 251.623, 492.095 252.385 M 294.392 266 C 294.392 273.425, 294.549 276.462, 294.742 272.750 C 294.934 269.038, 294.934 262.962, 294.742 259.250 C 294.549 255.537, 294.392 258.575, 294.392 266 M 460.389 266.500 C 460.390 273.650, 460.550 276.444, 460.742 272.708 C 460.935 268.973, 460.934 263.123, 460.739 259.708 C 460.545 256.294, 460.387 259.350, 460.389 266.500 M 368.015 257.250 C 368.002 258.784, 368.956 258.976, 375.750 258.804 L 383.500 258.608 376.528 258.253 C 372.568 258.052, 369.226 257.380, 368.793 256.699 C 368.276 255.886, 368.026 256.063, 368.015 257.250 M 411.897 258.302 C 412.340 258.742, 415.582 258.962, 419.102 258.790 L 425.500 258.477 418.295 257.989 C 414.333 257.720, 411.453 257.861, 411.897 258.302 M 481.385 270 C 481.385 276.875, 481.545 279.688, 481.740 276.250 C 481.936 272.813, 481.936 267.188, 481.740 263.750 C 481.545 260.313, 481.385 263.125, 481.385 270 M 314.252 264.500 C 314.263 266.700, 314.468 267.482, 314.707 266.238 C 314.946 264.994, 314.937 263.194, 314.687 262.238 C 314.437 261.282, 314.241 262.300, 314.252 264.500 M 381.750 262.706 C 382.988 262.944, 385.012 262.944, 386.250 262.706 C 387.488 262.467, 386.475 262.272, 384 262.272 C 381.525 262.272, 380.512 262.467, 381.750 262.706 M 424.750 262.706 C 425.988 262.944, 428.012 262.944, 429.250 262.706 C 430.488 262.467, 429.475 262.272, 427 262.272 C 424.525 262.272, 423.512 262.467, 424.750 262.706 M 303.272 268 C 303.272 270.475, 303.467 271.488, 303.706 270.250 C 303.944 269.012, 303.944 266.988, 303.706 265.750 C 303.467 264.512, 303.272 265.525, 303.272 268 M 440.463 278.831 C 440.933 279.660, 440.148 281.359, 438.382 283.331 L 435.546 286.500 438.988 283.265 C 441.855 280.572, 442.203 279.819, 441.069 278.765 C 439.965 277.740, 439.850 277.752, 440.463 278.831 M 511.136 281.050 C 511.061 282.453, 510.663 284.031, 510.250 284.557 C 509.837 285.084, 510.101 285.006, 510.836 284.385 C 511.571 283.764, 511.970 282.186, 511.723 280.878 C 511.277 278.524, 511.271 278.526, 511.136 281.050 M 327.762 283.707 C 329.006 283.946, 330.806 283.937, 331.762 283.687 C 332.718 283.437, 331.700 283.241, 329.500 283.252 C 327.300 283.263, 326.518 283.468, 327.762 283.707 M 354.688 283.714 C 355.892 283.938, 357.084 284.778, 357.337 285.580 C 357.628 286.505, 357.739 286.392, 357.640 285.270 C 357.538 284.122, 356.607 283.466, 354.991 283.404 C 352.939 283.324, 352.886 283.379, 354.688 283.714 M 337.458 285.067 C 336.964 285.868, 337.101 286.055, 337.845 285.595 C 338.605 285.126, 339.047 285.844, 339.136 287.691 C 339.259 290.219, 339.317 290.263, 339.721 288.135 C 340.246 285.367, 338.628 283.174, 337.458 285.067" stroke="none" fill="#e6c57e" fill-rule="evenodd"/></svg>