<?xml version="1.0" standalone="no"?>
<!DOCTYPE svg PUBLIC "-//W3C//DTD SVG 20010904//EN"
 "http://www.w3.org/TR/2001/REC-SVG-20010904/DTD/svg10.dtd">
<svg version="1.0" xmlns="http://www.w3.org/2000/svg"
 width="512.000000pt" height="512.000000pt" viewBox="0 0 512.000000 512.000000"
 preserveAspectRatio="xMidYMid meet">

<g transform="translate(0.000000,512.000000) scale(0.100000,-0.100000)"
fill="#000000" stroke="none">
<path d="M2495 4381 c-50 -30 -60 -50 -110 -198 l-47 -143 -151 0 c-125 0
-158 -3 -186 -18 -45 -22 -71 -59 -78 -109 -9 -70 15 -103 148 -199 66 -48
122 -90 125 -95 3 -5 -16 -73 -41 -150 -50 -149 -53 -185 -20 -236 35 -52 109
-76 167 -54 13 5 76 47 141 94 l117 86 118 -85 c64 -48 127 -90 140 -95 58
-22 132 2 167 54 33 51 30 87 -20 236 -25 77 -44 145 -41 150 3 5 59 47 125
95 133 96 157 129 148 199 -7 50 -33 87 -78 109 -28 15 -61 18 -186 18 l-151
0 -47 139 c-25 77 -55 152 -67 166 -43 55 -118 71 -173 36z m114 -332 c24 -72
52 -140 62 -150 17 -17 35 -19 176 -19 l157 0 -122 -90 c-67 -49 -127 -101
-133 -114 -9 -19 -3 -48 35 -164 25 -77 46 -143 46 -146 0 -3 -52 33 -116 79
-64 47 -127 88 -139 91 -29 7 -47 -2 -177 -98 -60 -43 -108 -76 -108 -73 0 4
20 68 45 144 36 110 43 144 36 164 -11 27 -29 43 -166 142 l-90 65 158 0 c141
0 159 2 176 19 10 10 38 78 62 150 24 72 46 131 49 131 3 0 25 -59 49 -131z"/>
<path d="M1263 3790 c-43 -26 -55 -48 -94 -167 l-33 -103 -119 0 c-133 0 -165
-10 -197 -63 -46 -75 -20 -130 106 -221 52 -38 93 -75 90 -81 -33 -88 -67
-223 -62 -250 13 -69 80 -114 149 -101 18 3 73 35 122 71 49 36 93 65 98 65 4
0 49 -29 100 -65 50 -36 101 -68 114 -71 64 -16 133 27 154 95 9 32 6 50 -25
147 -20 61 -36 113 -36 117 0 3 40 35 90 71 49 37 98 78 107 93 23 35 22 100
-2 136 -31 48 -62 57 -194 57 l-119 0 -36 108 c-42 125 -56 149 -102 168 -45
19 -73 18 -111 -6z m137 -405 c17 -16 38 -21 117 -25 l97 -5 -72 -53 c-98 -70
-101 -80 -68 -185 14 -47 26 -88 26 -91 0 -4 -34 16 -75 45 -47 33 -85 52
-103 52 -18 0 -53 -18 -99 -51 -39 -29 -73 -52 -76 -52 -3 0 5 32 19 72 13 39
24 89 24 110 0 36 -4 41 -80 97 l-79 59 99 4 c121 4 126 8 165 128 l28 85 29
-85 c15 -46 37 -94 48 -105z"/>
<path d="M3744 3796 c-44 -19 -58 -44 -100 -168 l-36 -108 -121 0 c-102 0
-127 -3 -153 -19 -40 -24 -68 -83 -60 -124 10 -49 30 -72 126 -143 50 -36 90
-68 90 -71 0 -4 -16 -56 -36 -117 -31 -97 -34 -115 -25 -147 21 -68 90 -111
154 -95 13 3 64 35 114 71 51 36 96 65 100 65 5 0 49 -29 98 -65 49 -36 104
-68 122 -71 69 -13 136 32 149 101 5 27 -29 162 -62 250 -3 7 34 41 84 76 103
74 122 96 129 148 7 48 -17 95 -60 121 -27 17 -51 20 -152 20 l-121 0 -33 103
c-39 119 -51 141 -94 167 -37 23 -70 25 -113 6z m81 -308 c39 -118 44 -122
165 -126 l99 -4 -79 -59 c-76 -56 -80 -61 -80 -97 0 -21 11 -71 24 -110 14
-40 22 -72 19 -72 -3 0 -35 22 -72 48 -36 27 -74 52 -84 55 -24 9 -71 -12
-136 -62 -30 -22 -56 -39 -58 -37 -3 2 8 43 23 91 33 107 30 116 -68 187 l-72
53 96 5 c119 6 128 13 165 126 15 46 28 84 29 84 1 0 15 -37 29 -82z"/>
<path d="M2426 2767 c-18 -18 -25 -45 -40 -152 -10 -72 -25 -152 -33 -180 -38
-128 -139 -265 -248 -334 l-49 -31 -323 0 -324 0 -24 -25 -25 -24 0 -586 0
-587 29 -29 29 -29 320 0 320 0 73 -45 c83 -51 193 -90 294 -105 39 -5 286
-10 551 -10 531 0 551 2 620 62 71 63 100 166 70 254 -9 26 -23 55 -31 64 -14
15 -13 22 12 66 39 69 40 169 2 233 l-26 44 24 43 c31 56 40 136 20 191 -14
41 -14 42 15 70 52 49 72 100 73 179 0 61 -4 77 -30 120 -19 30 -49 60 -79 79
l-49 30 -318 3 -318 3 -3 242 -3 242 -28 57 c-34 70 -101 131 -173 158 -44 16
-79 20 -180 20 -117 0 -126 -2 -148 -23z m294 -159 c75 -52 74 -47 80 -365 l5
-285 28 -24 28 -24 345 0 345 0 24 -25 c33 -33 32 -70 -4 -106 -27 -26 -36
-29 -96 -29 -57 0 -69 -3 -90 -25 -14 -13 -25 -36 -25 -50 0 -35 50 -85 85
-85 33 0 75 -42 75 -75 0 -35 -50 -85 -85 -85 -33 0 -75 -42 -75 -75 0 -35 50
-85 85 -85 33 0 75 -42 75 -75 0 -35 -50 -85 -85 -85 -33 0 -75 -42 -75 -75 0
-35 50 -85 85 -85 33 0 75 -42 75 -75 0 -16 -12 -38 -30 -56 l-30 -30 -522 3
c-507 3 -525 4 -588 26 -36 12 -93 38 -127 59 l-63 37 0 515 1 516 50 34 c27
19 83 69 123 112 121 129 170 244 211 502 l6 37 68 0 c54 0 75 -5 101 -22z
m-720 -1178 l0 -480 -240 0 -240 0 0 480 0 480 240 0 240 0 0 -480z"/>
<path d="M624 2756 c-44 -19 -58 -44 -100 -168 l-36 -108 -121 0 c-102 0 -127
-3 -153 -19 -40 -24 -68 -83 -60 -124 10 -49 30 -72 126 -143 50 -36 90 -68
90 -71 0 -4 -16 -56 -36 -117 -31 -97 -34 -115 -25 -147 21 -68 90 -111 154
-95 13 3 64 35 114 71 51 36 96 65 100 65 5 0 49 -29 98 -65 49 -36 104 -68
122 -71 69 -13 136 32 149 101 5 27 -29 162 -62 250 -3 7 34 41 84 76 103 74
122 96 129 148 7 48 -17 95 -60 121 -27 17 -51 20 -152 20 l-121 0 -33 103
c-39 119 -51 141 -94 167 -37 23 -70 25 -113 6z m81 -308 c39 -118 44 -122
165 -126 l99 -4 -79 -59 c-76 -56 -80 -61 -80 -97 0 -21 11 -71 24 -110 14
-40 22 -72 19 -72 -3 0 -35 22 -72 48 -36 27 -74 52 -84 55 -24 9 -71 -12
-136 -62 -30 -22 -56 -39 -58 -37 -3 2 8 43 23 91 33 107 30 116 -68 187 l-72
53 96 5 c119 6 128 13 165 126 15 46 28 84 29 84 1 0 15 -37 29 -82z"/>
<path d="M4384 2756 c-44 -19 -58 -44 -100 -168 l-36 -108 -121 0 c-102 0
-127 -3 -153 -19 -40 -24 -68 -83 -60 -124 10 -49 30 -72 126 -143 50 -36 90
-68 90 -71 0 -4 -16 -56 -36 -117 -31 -97 -34 -115 -25 -147 21 -68 90 -111
154 -95 13 3 64 35 114 71 51 36 96 65 100 65 5 0 49 -29 98 -65 49 -36 104
-68 122 -71 69 -13 136 32 149 101 5 27 -29 162 -62 250 -3 7 34 41 84 76 103
74 122 96 129 148 7 48 -17 95 -60 121 -27 17 -51 20 -152 20 l-121 0 -33 103
c-39 119 -51 141 -94 167 -37 23 -70 25 -113 6z m81 -308 c39 -118 44 -122
165 -126 l99 -4 -79 -59 c-76 -56 -80 -61 -80 -97 0 -21 11 -71 24 -110 14
-40 22 -72 19 -72 -3 0 -35 22 -72 48 -36 27 -74 52 -84 55 -24 9 -71 -12
-136 -62 -30 -22 -56 -39 -58 -37 -3 2 8 43 23 91 33 107 30 116 -68 187 l-72
53 96 5 c119 6 128 13 165 126 15 46 28 84 29 84 1 0 15 -37 29 -82z"/>
</g>
</svg>
